<svg xmlns="http://www.w3.org/2000/svg" viewBox="0 0 1792 1671.6">
    <path d="M1493,0c-76.3,0-152.6,28.7-210.6,86.7L435.9,934.5a46.6,46.6,0,0,0-8,8,22.9,22.9,0,0,0-2.7,2.7,37.9,37.9,0,0,0-5.3,5.3v1.4c-74.2,83.3-71.8,212.1,8,291.9,82.8,82.8,218.4,82.8,301.3,0l643.9-645.2a42.4,42.4,0,1,0-60-60L669.2,1182.5a128.1,128.1,0,0,1-181.3,0c-48.5-48.5-49.4-124.3-4-174.7a40.9,40.9,0,0,0,4-5.3,16.6,16.6,0,0,0,2.6-2.7l4-2.6v-1.4L1343.7,148c83.4-83.3,216.5-83.5,300,0s83.3,216.6,0,299.9L593.2,1498.4a297.9,297.9,0,0,1-421.3-421.2l839.9-839.9a42.7,42.7,0,1,0-60-60L111.9,1017.2c-149.1,149.1-149.3,393.4,0,542.6s392.1,149.1,541.3,0L1705,509.3c116-116,116-306.7,0-422.6C1647,28.7,1569.4,0,1493,0Z"/>
</svg>
