<svg xmlns="http://www.w3.org/2000/svg" viewBox="0 0 1792 1792">
  <title>chat-round</title>
  <path d="M896,59.7c461.1,0,836.3,375.2,836.3,836.3S1357.1,1732.3,896,1732.3,59.7,1357.1,59.7,896,434.9,59.7,896,59.7M896,0C401.2,0,0,401.2,0,896s401.2,896,896,896,896-401.2,896-896S1390.8,0,896,0Zm129.4,1524.8-47.1-10.5c-99.4-22.1-145.2-122.2-175.4-188.4-8.5-18.6-19.8-43.3-26.8-51.7-259.8-22.2-434-195.3-434-432.2,0-239.7,248.5-434.7,553.9-434.7s553.9,195,553.9,434.7c0,219.6-176.2,394.3-430.1,428.5-9.6,32-14.3,134.4-2.3,206.6ZM896,472.4c-269.5,0-488.7,165.8-488.7,369.6,0,205.6,148.8,349.9,379.1,367.7,36.3,2.7,53.7,40.8,75.7,89.1,20.9,45.5,45.5,99.4,84.9,130-4.7-75-.6-172.5,23.2-204.1,9.5-12.6,21-16.4,28.9-17.3,227.1-25.9,385.6-176.2,385.6-365.4C1384.7,638.2,1165.5,472.4,896,472.4Z"/>
</svg>
